<?xml version="1.0" encoding="utf-8"?>
<svg viewBox="0 0 3384.54 2077.85" style="enable-background:new 0 0 3384.54 2077.85;" xmlns="http://www.w3.org/2000/svg">
  <defs>
    <style type="text/css" id="style2">
	.st0{fill:#1434CB;}
</style>
  </defs>
  <path class="st0" d="M 1313.064 547.971 L 900.429 1532.472 L 631.215 1532.472 L 428.155 746.795 C 415.827 698.402 405.108 680.673 367.614 660.285 C 306.401 627.076 205.314 595.92 116.376 576.582 L 122.416 547.971 L 555.768 547.971 C 611.007 547.971 660.664 584.742 673.206 648.352 L 780.447 1218.034 L 1045.492 547.954 L 1313.064 547.954 L 1313.064 547.971 Z M 2367.89 1211.041 C 2368.974 951.2 2008.588 936.886 2011.066 820.812 C 2011.837 785.488 2045.474 747.928 2119.098 738.341 C 2155.588 733.564 2256.134 729.919 2370.171 782.4 L 2414.903 573.628 C 2353.624 551.385 2274.781 529.98 2176.682 529.98 C 1924.951 529.98 1747.796 663.798 1746.3 855.416 C 1744.676 997.148 1872.751 1076.237 1969.24 1123.333 C 2068.504 1171.563 2101.811 1202.555 2101.433 1245.694 C 2100.728 1311.734 2022.263 1340.887 1948.934 1342.038 C 1820.927 1344.007 1746.646 1307.4 1687.435 1279.871 L 1641.274 1495.553 C 1700.78 1522.854 1810.618 1546.671 1924.491 1547.87 C 2192.046 1547.87 2367.069 1415.709 2367.89 1211.041 M 3032.617 1532.472 L 3268.164 1532.472 L 3062.56 547.971 L 2845.153 547.971 C 2796.268 547.971 2755.032 576.435 2736.777 620.199 L 2354.609 1532.472 L 2622.033 1532.472 L 2675.121 1385.423 L 3001.871 1385.423 L 3032.617 1532.472 Z M 2748.45 1183.645 L 2882.499 813.999 L 2959.652 1183.645 L 2748.45 1183.645 Z M 1676.946 547.971 L 1466.352 1532.472 L 1211.682 1532.472 L 1422.358 547.971 L 1676.946 547.971 Z" id="path4" style=""/>
</svg>